<svg id="feedback_launchpad" xmlns="http://www.w3.org/2000/svg" width="42" height="42" viewBox="0 0 42 42">
  <circle id="Ellipse_2904" data-name="Ellipse 2904" cx="21" cy="21" r="21" fill="#fff"/>
  <path id="rate_review_24dp_FILL0_wght300_GRAD0_opsz24" d="M104.664-845.716h3.318l6.486-6.486a1.6,1.6,0,0,0,.335-.52,1.518,1.518,0,0,0,.112-.559,1.281,1.281,0,0,0-.122-.539,2.107,2.107,0,0,0-.326-.5l-1.149-1.2a1.487,1.487,0,0,0-.5-.335,1.54,1.54,0,0,0-.574-.112,1.52,1.52,0,0,0-.559.112,1.605,1.605,0,0,0-.52.335l-6.5,6.486Zm8.745-7.564-1.168-1.181Zm-7.239,6.058v-1.2l3.773-3.773.607.593.58.62-3.76,3.76Zm4.38-4.38.58.62-1.188-1.212Zm.809,5.886h7.977v-1.895h-6.083ZM100-836.583v-21.134a2.2,2.2,0,0,1,.663-1.62,2.2,2.2,0,0,1,1.62-.663h19.433a2.2,2.2,0,0,1,1.62.663,2.2,2.2,0,0,1,.663,1.62v14.38a2.2,2.2,0,0,1-.663,1.62,2.2,2.2,0,0,1-1.62.663H104.47Zm3.663-6.364h18.053a.371.371,0,0,0,.267-.122.371.371,0,0,0,.122-.267v-14.38a.371.371,0,0,0-.122-.267.371.371,0,0,0-.267-.122H102.283a.371.371,0,0,0-.267.122.371.371,0,0,0-.122.267V-841.2Zm-1.768,0v0Z" transform="translate(-91 869)" fill="#333"/>
</svg>
