<svg xmlns="http://www.w3.org/2000/svg" width="42" height="42" viewBox="0 0 42 42">
  <g id="_317750_linkedin_icon_1_" data-name="317750_linkedin_icon (1)" transform="translate(0 0.324)">
    <circle id="Ellipse_2904" data-name="Ellipse 2904" cx="21" cy="21" r="21" transform="translate(0 -0.324)" fill="#fff"/>
    <path id="chat_FILL0_wght400_GRAD0_opsz48_2_" data-name="chat_FILL0_wght400_GRAD0_opsz48 (2)" d="M8.231,16.719h8.277V15.132H8.231Zm0-3.438H20.923V11.695H8.231Zm0-3.438H20.923V8.257H8.231ZM4,25.154V5.587a1.537,1.537,0,0,1,.476-1.1A1.5,1.5,0,0,1,5.587,4H23.568a1.517,1.517,0,0,1,1.1.489,1.517,1.517,0,0,1,.489,1.1v13.75a1.678,1.678,0,0,1-1.587,1.587H8.231ZM5.587,21.32,7.57,19.337h16V5.587H5.587Zm0-15.734v0Z" transform="translate(6.577 6.253)" fill="#333"/>
  </g>
</svg>
